<svg xmlns="http://www.w3.org/2000/svg" viewBox="127 256 772 512"><path fill="#94c8d3" d="m885 256 2 12q4 38-8 74c-10 26-27 50-55 56a64 64 0 0 1-30 0c-28-6-46-32-61-55l-18-28c-13-14-22-21-43-23-27-2-54 12-57 42q0 18 13 33c26 27 70 45 104 63 29 16 59 29 87 48 8 6 23 16 28 22-5 5 3 13 5 19v3l-4-2 1 3-4-2 9 16c6 11 16 37 16 50q3 9 1 17 1 17-7 30h-1c-2-2-3-10-4-12h-1c1 20 0 32-8 50 2-17 3-28-7-43q4 19-3 37-3 3-7 4l-2 12q-5 13-13 25c9-5 11-8 17-16-3 13-8 17-20 24l-7 5-22 5q-1-2 1-2v-1q14-5 22-18c23-35 2-80-31-101q-32-19-66-36-50-25-95-54l-16-10-13-11a123 123 0 0 1-21-163l9-14c46-58 125-67 190-39 16 6 31 16 47 22 21 7 44 7 60-10 6-7 12-22 11-32z"/><path fill="#07518f" d="M633 284q-3 3-8 5-50 37-58 98l1 1q6-15 16-29v-3h3l6-6q-6 12-7 23c1 21 3 30 13 49l1-1c-3-7-11-37-4-42h1l4 13c15 45 59 72 96 97l23 15 13 7 44 25c-4-4-12-13-17-16-6-6-22-22-24-29v-1c8-4 44 22 51 28l9 7c20 17 33 29 48 51l-4-11 1-2c12 20 19 32 21 56l2 15h-1c-2-2-3-10-4-12h-1c1 20 0 32-8 50 2-17 3-28-7-43q4 19-3 37-3 3-7 4l-2 12q-5 13-13 25c9-5 11-8 17-16-3 13-8 17-20 24l-7 5-22 5q-1-2 1-2v-1q14-5 22-18c23-35 2-80-31-101q-32-19-66-36-50-25-95-54l-16-10-13-11a123 123 0 0 1-21-163l11-12q16-19 37-30l-15 15q16-10 33-18"/><path fill="#103556" d="m588 454 13 12 30 23 24 16 88 52 29 19 18 13c-6-8-33-34-32-42l2-2c7 2 27 16 31 22a118 118 0 0 1 42 103l-2 12q-5 13-13 25c9-5 11-8 17-16-3 13-8 17-20 24l-7 5-22 5q-1-2 1-2v-1q14-5 22-18c23-35 2-80-31-101q-32-19-66-36-50-25-95-54c5-10-25-42-29-59"/><path fill="#091726" d="M712 553a170 170 0 0 1 65 37c5 5 25 26 31 26l1-1c4-14-12-32-21-41-3-3-12-11-13-14 6 0 11 5 16 7a118 118 0 0 1 42 103l-2 12q-5 13-13 25c9-5 11-8 17-16-3 13-8 17-20 24l-7 5-22 5q-1-2 1-2v-1q14-5 22-18c23-35 2-80-31-101-1-9-41-36-51-41z"/><path fill="#6c7045" d="M586 373c1 21 3 30 13 49l1-1c-3-7-11-37-4-42h1l4 13c15 45 59 72 96 97l23 15c1 4 12 9 12 16-9 3-56-33-68-33h-1c1 6 32 27 38 32l-1 1-11-6c-19-10-55-33-68-50l-1 1q1 5-1 8c-13 2-31-37-33-48s-6-42 0-52"/><path fill="#085c9e" d="m617 458 4 6-1 1q-2-3-3-7"/><path fill="#6aabba" d="m600 421 1 4-2-3z"/><path fill="#091726" d="m579 381-3 19c-2 18 3 39 12 54 4 17 34 49 29 59l-16-10q-1-5-5-8c-24-29-36-80-17-114"/><path fill="#94c8d3" d="M584 359v-3h3z"/><path fill="#868f6f" d="m700 520 1-1 4 2-1 1z"/><path fill="#508ca5" d="m705 521 3 2q-3 0-4-1z"/><path fill="#7eb5cf" d="m567 387 1 1-1 2z"/><path fill="#103556" d="M858 622v-3l1 3z"/><path fill="#091726" d="m885 256 2 12q4 38-8 74c-10 26-27 50-55 56a64 64 0 0 1-30 0c-28-6-46-32-61-55l-18-28 4-1c-1-4-7-11-10-14q-16-12-34-15l-14-3c24-17 75-7 94 15 7 8 4 17 17 19 8 0 34 3 20 15 6 1 28 5 31-2-1-3-11-9-15-13q14 4 28 1 5-2 4-7c-5-5-22-3-27-11v-1c21 7 44 7 60-10 6-7 12-22 11-32z"/><path fill="#6aabba" d="M661 282c24-17 75-7 94 15 7 8 4 17 17 19 8 0 34 3 20 15l-11-2c9 6 18 5 16 18 13 5 22 7 36 6l12-1c-17 7-30 7-48 4l-1 1c8 3 12 4 21 5l4 1c-29 3-55-11-77-29-10-7-15-14-25-20-1-4-7-11-10-14q-16-12-34-15z"/><path fill="#085c9e" d="m796 357-2-2 3 1zM885 256l2 12c-2 1-7 16-8 19q-7 17-22 27c14-4 14-11 25-18q-3 28-24 47l-13 9-12 1c-14 1-23-1-36-6 2-13-7-12-16-18l11 2c6 1 28 5 31-2-1-3-11-9-15-13q14 4 28 1 5-2 4-7c-5-5-22-3-27-11v-1c21 7 44 7 60-10 6-7 12-22 11-32z"/><path fill="#103556" d="M857 314q15-10 22-27c1-3 6-18 8-19q4 38-8 74c-10 26-27 50-55 56 3-8 17-15 24-20l10-11 6-17-15 15c-8 7-27 8-38 7 7-4 24-2 27-13-5 0-11 4-17 4l-4-1c-9-1-13-2-21-5l1-1c18 3 31 3 48-4l13-9q21-19 24-47c-11 7-11 14-25 18"/><path fill="#508ca5" d="m817 362 18-2 3-1c-5 0-11 4-17 4z"/><path fill="#3c4332" d="M719 314c10 6 15 13 25 20 22 18 48 32 77 29 6 0 12-4 17-4-3 11-20 9-27 13-18 0-31-3-47-13l-15-10c4 15 22 35 35 43l14 7-4-1c-28-6-46-32-61-55l-18-28z"/><path fill="#6aabba" d="m760 520-16-11-24-18c-7-6-50-34-48-42 5-2 19 7 23 6v-3c-5-12-62-35-60-45l4-4c7-4 22-1 29 2 5 1 18 7 21 11l-1 1q-8 0-15 1 0 5 2 6 22 11 44 21 32 15 56 40 17 18 21 40l-9-7c-7-6-43-32-51-28v1c2 7 18 23 24 29M633 284c3-2 17-8 21-5 0 5-10 11-13 13a75 75 0 0 0-34 65l1 18c-9-13-7-22-10-36q-8 8-13 17h-1v3q-10 14-16 29l-1-1q8-61 58-98 5-2 8-5"/><path fill="#636b41" d="M827 511q-3-5 0-8c6 1 15 12 20 16l1 1 1 3-4-2 9 16c6 11 16 37 16 50v3c-1-1-1-7-4-10l-3-8c-8-23-23-42-36-61"/><path fill="#6aabba" d="M786 476c17 4 53 27 61 43-5-4-14-15-20-16q-3 3 0 8l-14-13z"/><path fill="#6c7045" d="M866 580c3 3 3 9 4 10v-3q3 9 1 17l-2-14v-1z"/><path fill="#085c9e" d="M840 565q-1-5 1-2z"/><defs><linearGradient id="a" x1="440.7" x2="125.4" y1="689.9" y2="709.6" gradientUnits="userSpaceOnUse"><stop offset="0" stop-color="#152739"/><stop offset="1" stop-color="#05599f"/></linearGradient></defs><path fill="url(#a)" d="M524 576v18q1 36-14 69-17 53-65 80l-10 5-2 1c-42 16-82 1-119-19q-11-6-20-12l-28-13c-24-9-41-13-66-13l-7 1q-19 2-34 11c-8 0-23 21-26 28l-1 3 1-1h1c0 2-1 9-5 9h-1l-1-5c0-13 7-39 14-51 13-40 56-72 95-85 14-7 42-8 58-7q15 1 29 4 29 7 57 17l52 20 17 4q24 4 44-9c20-13 27-33 31-55"/><path fill="#ce7056" d="M524 576v18q1 36-14 69l-5 8q-13 22-35 34c-4 4-15 9-21 10l-15 4h-13l-14-2q-25-7-43-25-1 5 1 9c-3 3-9-2-11-4q-25-17-40-42c-4-7-9-22-15-25-6-2-16-2-19-9l2-6 2-1c13 1 13 3 23 5 7-9 22 5 26 3 1-4-5-10-8-12q-14-10-31-15 15 1 29 4 29 7 57 17l52 20 17 4q24 4 44-9c20-13 27-33 31-55"/><path fill="#6c7045" d="M284 614c13 1 13 3 23 5q13 5 22 13l1-5c5-1 29 20 34 24l16 13-14-7c7 17 19 24 35 32q17 7 36 9l-18 6c5 2 20 1 23 3q0 5-5 6c9 0 14-1 23-4l10-4c-4 4-15 9-21 10l-15 4h-13l-14-2q-25-7-43-25-1 5 1 9c-3 3-9-2-11-4q-25-17-40-42c-4-7-9-22-15-25-6-2-16-2-19-9l2-6z"/><path fill="#3c4332" d="M284 614c13 1 13 3 23 5q13 5 22 13c6 5 22 17 19 26-3 1-10-4-14-3-1 4 12 18 15 21l15 16q-1 5 1 9c-3 3-9-2-11-4q-25-17-40-42c-4-7-9-22-15-25-6-2-16-2-19-9l2-6z"/><path fill="#90372a" d="M346 668q8 4 16 12c20 19 29 27 57 24 5 2 20 1 23 3q0 5-5 6c9 0 14-1 23-4l10-4c-4 4-15 9-21 10l-15 4h-13l-14-2q-25-7-43-25l-15-16z"/><path fill="#94c8d3" d="M294 595q15 1 29 4 29 7 57 17l52 20 17 4c5 4 31 8 38 8q-5 4-11 5-21 2-44-4 2 8-3 9c-8 0-28-10-34-5-2 5 14 14 18 16q13 8 29 12l17 2c-25 10-47 1-68-12l-11-7-16-13c-5-4-29-25-34-24l-1 5q-9-8-22-13c7-9 22 5 26 3 1-4-5-10-8-12q-14-10-31-15"/><path fill="#e08c77" d="M524 576v18q1 36-14 69l-5 8q-5 3-9 8-12 13-28 18l5-3c26-18 42-52 47-82v-3q-8 20-24 33l-9 6c-7 0-33-4-38-8q24 4 44-9c20-13 27-33 31-55"/><path fill="#c78069" d="m520 609 1-3-1 6z"/><path fill="#6c7045" d="M236 602c14-7 42-8 58-7q17 5 31 15c3 2 9 8 8 12-4 2-19-12-26-3-10-2-10-4-23-5l-2 1-2 6c3 7 13 7 19 9 6 3 11 18 15 25l-15-1c-6-4-23-12-31-12-22-8-36-10-59-5l-8 3-5 2-2 1c-15 6-32 16-42 29l-11 15c13-40 56-72 95-85"/><path fill="#3c4332" d="M141 687c13-40 56-72 95-85v3c-6 0-18 7-21 12 17-2 28-7 46-2-16 3-52 9-60 25l-5 2-2 1c-15 6-32 16-42 29z"/><path fill="#868f6f" d="M236 602c14-7 42-8 58-7q17 5 31 15c3 2 9 8 8 12-4 2-19-12-26-3-10-2-10-4-23-5 3-1 11-3 12-6l-2-2c-17-9-41-4-59 0l1-1z"/><path fill="#085c9e" d="M209 637c23-5 37-3 59 5 8 0 25 8 31 12q-10 2-15 10-1 10 4 18c8 11 21 7 31 12 3 1 7 7 10 9 3 3 12 10 13 14l-1 1h-7q-43-13-87-30l-13-4v-1c2-4 23-2 20-8-7-13-31-17-44-19-5-1-16 1-19-1-1-5 5-7 4-12h-1l2-1 5-2z"/><path fill="#94c8d3" d="M209 637c23-5 37-3 59 5q6 3 10 7v1l-21-4-22-1-6-1 20-3c-14-3-23-4-37-3z"/><path fill="#7eb5cf" d="m209 637 3 1-16 4 5-2zM223 645l6-1 6 1z"/><path fill="#091726" d="m505 671 5-8q-17 53-65 80l-10 5q-7-1-14 2-42 7-79-18c16 4 29 10 45 9 5-1 20-1 18-9l-10-3q-10-3-19-10 22 7 45 5c4-1 28-5 28-9 6-1 17-6 21-10q22-12 35-34"/><path fill="#103556" d="M132 731q3-13 10-23c13-21 45-49 71-33q4 3 5 7c-1 7-21 5-25 11q-19 2-34 11c-8 0-23 21-26 28z"/><path fill="#07518f" d="M200 692c4-2 19 1 27 0v1c7 2 35 7 39 12-24-9-41-13-66-13"/><path fill="#103556" d="M421 719h13l15-4c0 4-24 8-28 9l-4-1 11-1 10-2 5-2-6 1c-4 0-13 2-16 0"/><path fill="#07518f" d="m132 731 1 1-1 3c-2 1 0-4 0-4"/><path fill="#94c8d3" d="m540 260 2 3-1 6v15c-2 20-13 48-24 64q-10 14-21 24h-1c-19 24-72 45-102 49q-36 5-69-11c-3-1-11-4-12-6-20-10-37-20-59-26-19-6-29-6-48-4-21 7-32 15-42 33l-2 2-1-7v1l-3 2 3-20 3-15q10-40 37-70c17-18 44-35 70-36q12-1 25 1c50 8 94 50 143 59l4 1h1c46 9 88-20 97-65"/><defs><linearGradient id="b" x1="278.2" x2="231.1" y1="297.3" y2="429.8" gradientUnits="userSpaceOnUse"><stop offset="0" stop-color="#055090"/><stop offset="1" stop-color="#0c69ab"/></linearGradient></defs><path fill="url(#b)" d="M270 264q12-1 25 1c50 8 94 50 143 59-18 1-31 9-50 4l-9-4-17-7c-2-1-3 9-3 11l-7-1-19-10-4 6 16 13q3 3 6 7-22-15-46-25v1c8 6 32 20 29 33-5 5-42-17-49-20l-9 1-14-7c-13-8-32-8-43 5 22-2 35 2 54 16q2 2 3 5c-3 2-13-2-19 0-3 4 4 10 7 12 11 6 48 24 48 40-20-10-37-20-59-26-19-6-29-6-48-4-21 7-32 15-42 33l-2 2-1-7v1l-3 2 3-20 3-15q10-40 37-70c17-18 44-35 70-36"/><path fill="#ce7056" d="M270 264q12-1 25 1c50 8 94 50 143 59-18 1-31 9-50 4l-9-4-17-7c-2-1-3 9-3 11l-7-1-19-10-4 6q-14-10-29-18c-16-7-28-10-46-7l-15 2c7-5 23-5 26-6l-3-1c-22-3-41 6-58 19l-16 16c-6 8-22 32-23 41-1 4-3 14-5 16l3-15q10-40 37-70c17-18 44-35 70-36"/><path fill="#e08c77" d="M270 264q12-1 25 1c50 8 94 50 143 59-18 1-31 9-50 4l-9-4-17-7c-2-1-3 9-3 11l-7-1-19-10-4 6q-14-10-29-18c9-4 33 5 45 6-6-8-31-20-40-26l-13-7-3-3c3-2 8 1 13 0v-1c-6-6-24-10-32-10"/><path fill="#091726" d="M165 369a142 142 0 0 1 39-57c17-13 36-22 58-19l3 1c-3 1-19 1-26 6l-16 9 4 1q27-7 50 7l-22-3c-24 1-48 14-66 29-11 9-16 15-24 26"/><path fill="#103556" d="m223 309 4 1c-2 0-8 2-9 1zM160 402c7-24 15-35 33-51l-7 12c16-5 24-13 41-6-18 2-28 8-43 18 4-1 18-3 21-1-21 7-32 15-42 33l-2 2z"/><path fill="#7eb5cf" d="m305 319-6-3z"/><path fill="#6c7045" d="m540 260 2 3-1 6v15c-2 20-13 48-24 64q-10 14-21 24h-1l-3-1q-2-6 1-13l-15 9a70 70 0 0 1-54 8c-13-3-37-14-45-26v-5l-27-17 7 1c0-2 1-12 3-11l17 7 9 4c19 5 32-3 50-4l4 1h1c46 9 88-20 97-65"/><path fill="#ce7056" d="M359 328c0-2 1-12 3-11l17 7 9 4c19 5 32-3 50-4l4 1-1 2c-5 3-16 4-20 8 4 2 16 2 22 3l-6 12c-8 10-22 12-34 9q-14-5-24-15l-27-17z"/><path fill="#3c4332" d="M471 335q36-8 57-38l8-14c2 12-22 37-30 46l-1 9h-1c-9 14-37 30-54 21q-7-3-9-9 2-4 6-3 31 1 56-17c-13 3-18 7-32 5"/><path fill="#2a2f22" d="M537 281q2 5 0 12c-3 18-16 44-30 56h-3c-2-3 1-7 1-11l1-9c8-9 32-34 30-46z"/><path fill="#3c4332" d="M541 269v15q-3 4-4 9 2-7 0-12z"/><path fill="#6aabba" d="M345 336v-4c11 6 26 19 32 30l-13-8-1-2-12-9q-3-4-6-7M299 367c6 1 15 7 21 9 14 5 10-5 15-7s21 9 26 13l9 5q41 18 82 3l-4 4-17 11c-41 19-99 8-128-27q-4-5-4-11"/><path fill="#ce7056" d="M852 519c-2-6-10-14-5-19q14 12 23 28c5 5 10 15 13 22q6 9 8 19a144 144 0 0 1-67 163 166 166 0 0 1-115 19l-5-1c-39-7-67-25-103-40-33-14-63-7-76 28l-1-2-2 4v-4l-1 2q0-2-1-3v-31q4-41 28-74a72 72 0 0 1 107-9 205 205 0 0 1 49 68v1c10 11 29 26 42 32l15 4 17-1 9-3v1q-2 0-1 2l22-5 7-5c12-7 17-11 20-24-6 8-8 11-17 16q8-12 13-25l2-12q4 0 7-4 7-18 3-37c10 15 9 26 7 43 8-18 9-30 8-50h1c1 2 2 10 4 12h1q8-14 7-30 2-8-1-17c0-13-10-39-16-50l-9-16 4 2-1-3 4 2z"/><path fill="#868f6f" d="M548 630a72 72 0 0 1 107-9 205 205 0 0 1 49 68l-4-4-14-12a93 93 0 0 0-66-24c-5-1-16 0-22 1-10 2-15 5-23 8-7 2-10-1-21 4q-19 10-29 31l-5 11q4-41 28-74"/><path fill="#6c7045" d="M598 650c-3-2-17-3-15-8 6-14 25-16 38-18 3-1 10-2 11-5-2-5-11-7-15-11 5-1 14 1 19 3 6 2 15 9 19 10a205 205 0 0 1 49 68l-4-4-14-12a93 93 0 0 0-66-24c-5-1-16 0-22 1"/><path fill="#3c4332" d="M636 611c6 2 15 9 19 10 14 11 33 37 41 53-3-1-1-2-4-1l-12-11q-23-20-52-29l-14-3q25-6 46 6-8-12-20-21l-5-3z"/><path fill="#4d4840" d="M692 673c3-1 1 0 4 1l8 15-4-4z"/><path fill="#6c7045" d="m548 630 1 1 2 3 10-8c13-8 23-12 38-13h2c-21 11-37 22-47 45v4q-19 10-29 31l-5 11q4-41 28-74"/><path fill="#636b41" d="m599 613 5-1v1h-5"/><path fill="#253b43" d="M852 519c-2-6-10-14-5-19q14 12 23 28c5 5 10 15 13 22l-4-5c-1 1 2 2 0 3l5 20c6 33 1 68-15 97q-21 39-61 55l7-5c12-7 17-11 20-24-6 8-8 11-17 16q8-12 13-25l2-12q4 0 7-4 7-18 3-37c10 15 9 26 7 43 8-18 9-30 8-50h1c1 2 2 10 4 12h1q8-14 7-30 2-8-1-17c0-13-10-39-16-50l-9-16 4 2-1-3 4 2z"/><path fill="#6aabba" d="m852 519 7 17-10-13-1-3 4 2z"/><path fill="#c78069" d="M870 528c5 5 10 15 13 22l-4-5c-1 1 2 2 0 3l-3-8z"/><path fill="#90372a" d="M592 671h2q-5 3-6 8c3 3 13 1 19 2s7 1 13 4l-8 1h1l-6 1c12 5 27 9 37 16q17 12 30 26 15 12 33 20l-3 1c-39-7-67-25-103-40-33-14-63-7-76 28l-1-2q3-12 9-23 21-34 59-42"/><path fill="#c78069" d="M607 687c-6-2 4-1 5-1h1z"/><path fill="#e08c77" d="M747 728c4 3 16 7 15 12-5 6-34-1-41-4q-24-8-42-26-3-3-4-8c-11-19-46-27-65-33l12-1c28 0 54 15 75 32 4 2 16 14 18 15 3-5-7-16-9-19q-2-3-2-6c10 11 29 26 42 32l15 4z"/><path fill="#3c4332" d="M598 650c6-1 17-2 22-1q-5 1-8 5v1q4 2 9 3 19 3 36 13l-1 1-10-4q-27-8-52 3h-2q-38 8-59 42-6 11-9 23l-2 4v-4l-1 2q0-2-1-3v-31l5-11q10-21 29-31c11-5 14-2 21-4 8-3 13-6 23-8"/><path fill="#091726" d="M567 664q-7 4-15 11l-12 13 1 1c6-7 25-17 34-19q9-3 17 1-38 8-59 42-6 11-9 23l-2 4v-4l2-13c3-23 18-54 43-59"/><path fill="#253b43" d="m540 688 1 1q-7 6-1-1"/><path fill="#452e2b" d="m778 725 9-3v1q-2 0-1 2z"/><path fill="#9c4734" d="m707 749 3 2h-1l-5-1z"/><path fill="#63452b" d="M657 671c6 4 2 2-1 1z"/><path fill="#94c8d3" d="M404 458a232 232 0 0 0 104-90l7-11-7 17q-24 53-70 88a346 346 0 0 1-50 36c-10 6-38 22-49 26l-40 20c-23 11-52 24-74 38a291 291 0 0 0-91 101l-3 8h-1q30-108 124-168c4-2 15-10 20-11l27-14q38-18 77-31z"/><path fill="#2a2f22" d="M404 458a232 232 0 0 0 104-90l7-11-7 17q-24 53-70 88c-3 3-26 21-29 22s-10 3-12 2q0-5 4-10c-9 4-43 17-50 14q-2-1-2-4c8-4 52-24 55-28"/><path fill="#3c4332" d="M349 486q0 3 2 4c7 3 41-10 50-14q-4 5-4 10c2 1 9-1 12-2l-21 14c-10 6-38 22-49 26-8 2-41 15-46 10 1-3 12-5 15-7l2-7c5-6 45-12 44-19l-1-1c-7 0-20 2-25 0-3-5 17-13 21-14"/><path fill="#6c7045" d="M310 520c3 2 18-2 23-3q24-7 46-19 4-2 9 0c-10 6-38 22-49 26-8 2-41 15-46 10 1-3 12-5 15-7zM274 512l27-14q38-18 77-31l26-9c-3 4-47 24-55 28-4 1-24 9-21 14 5 2 18 0 25 0l-76 22q-4 2-9 1l-1-3q3-4 7-8"/><path fill="#6aabba" d="m245 547 7 1c5 5-3 9-6 11q-48 33-86 76l-6 8c11-26 65-90 91-96"/><path fill="#085c9e" d="M133 732c3-7 18-28 26-28a93 93 0 0 0-30 64h-2c1-9-2-19 0-30l1 5h1c4 0 5-7 5-9h-1l-1 1z"/><path fill="#07518f" d="m157 405 3-2v-1l1 7 2-2-5 12-2 6 1-12z"/><path fill="#085c9e" d="m157 413 1 6-2 6z"/><path fill="#4d4840" d="M520 735q1 1 1 3l1-2v4l2-4 1 2q-2 6-3 13v1l-1-2-1-13z"/><path fill="#a4a1a1" d="m521 750 1 1v1zM540 260l1-6 1 9z"/><path fill="#cedae3" d="M131 691q-2 5-1 0z"/><path fill="#7eb5cf" d="M127 768h2v1l-1 2z"/><path fill="#81839b" d="M884 256q1-4 1 0z"/></svg>