<svg xmlns="http://www.w3.org/2000/svg"
shape-rendering="geometricPrecision"
width="4000" height="4000" viewBox="0 0 1024 1024">
<path d="
M 174.986 878.601
C 175.353 876.115 175.483 873.647 176.131 871.2
C 178.169 863.507 183.526 857.17 191.226 854.846
C 194.4 853.889 199.408 853.006 202.103 855.443
C 203.243 858.052 200.994 859.905 199.278 861.487
C 197.217 863.389 195.46 865.535 194.458 868.178
C 190.075 879.736 191.191 895.237 200.481 904.209
C 205.883 909.427 213.627 912.365 221.002 913.118
C 238.666 914.92 258.962 908.413 265.826 890.55
C 266.876 887.818 267.579 884.887 267.798 881.964
C 268.055 878.533 267.766 875.069 266.961 871.725
C 264.271 860.552 254.6 852.991 245.716 846.616
C 231.435 836.368 213.38 827.733 208.381 809.426
C 207.352 805.656 207.035 801.721 207.065 797.824
C 207.18 783.108 215.268 768.754 227.919 761.194
C 236.342 756.161 245.926 754.015 255.639 753.715
C 266.146 753.389 278.115 756.038 285.905 763.506
C 294.581 771.824 296.104 783.961 290.46 794.397
C 288.061 798.832 282.842 803.081 277.768 803.794
C 276.212 804.013 274.272 804.384 272.853 803.525
C 271.099 802.463 270.253 800.031 270.857 798.031
C 271.229 796.799 272.416 795.735 273.212 794.757
C 274.651 792.987 275.922 791.146 276.942 789.1
C 280.733 781.498 279.296 772.444 273.03 766.745
C 268.328 762.469 262.14 760.865 255.934 760.586
C 242.909 760.002 228.166 765.562 222.792 778.383
C 221.758 780.849 221.284 783.254 221.011 785.9
C 219.255 802.904 233.669 813.963 246.494 822.101
C 263.427 832.847 280.93 846.052 281.792 867.945
C 281.95 871.965 281.653 876.07 280.813 880.008
C 279.869 884.432 278.363 888.832 276.173 892.803
C 263.206 916.322 234.433 924.456 209.247 919.211
C 192.704 915.765 179.098 904.509 175.711 887.56
C 175.141 884.705 174.762 881.516 174.986 878.601 Z"
opacity="1" fill="rgb(28,27,27)" fill-rule="evenodd" />
<path d="
M 296.992 881.116
C 297.59 875.868 298.034 870.761 299.71 865.692
C 306.232 845.971 322.105 827.087 342.638 821.395
C 349.693 819.439 358.557 819.311 364.941 823.311
C 374.377 829.222 374.051 842.75 368.637 851.229
C 360.872 863.393 346.732 871.133 333.378 875.661
C 328.964 877.158 324.404 878.436 319.884 879.571
C 318.371 879.951 315.309 880.081 314.298 881.346
C 314.38 885.683 314.722 889.898 316.255 893.995
C 316.937 895.819 317.927 897.544 319.098 899.094
C 327.445 910.144 343.7 905.609 353.673 899.525
C 371.083 888.905 383.499 869.535 391.952 851.442
C 393.73 847.636 395.512 843.852 397.194 840.003
C 398.168 837.773 399.429 835.451 399.916 833.056
C 389.822 826.003 392.166 808.47 402.49 802.751
C 406.147 800.726 411.128 802.016 412.643 806.099
C 413.582 808.63 413.109 811.413 412.648 813.986
C 411.761 818.937 409.304 823.522 408.51 828.463
C 415.861 832.95 426.668 832.014 434.839 831.179
C 437.724 830.884 440.648 829.971 443.549 830.203
C 443.798 832.179 442.647 834.258 441.918 836.041
C 440.476 839.568 439.099 843.084 437.451 846.526
C 432.126 857.649 427.645 868.84 424.061 880.636
C 422.637 885.321 421.608 890.431 421.834 895.347
C 421.932 897.476 422.21 899.687 423.6 901.412
C 425.813 904.156 429.885 903.973 432.874 902.754
C 439.124 900.204 444.062 894.093 448.198 888.984
C 455.671 879.754 461.997 869.839 467.988 859.6
C 469.589 856.863 471.084 854.071 472.648 851.314
C 473.147 850.435 474.307 849.504 474.403 848.473
C 474.592 846.447 474.008 844.111 473.66 842.122
C 472.722 836.768 471.493 830.846 468.367 826.294
C 471.824 824.476 475.061 822.507 478.688 820.943
C 480.315 820.24 482.206 819.377 484.01 820.083
C 485.693 820.741 486.416 823.221 486.957 824.748
C 488.559 829.274 489.117 834.108 489.941 838.816
C 493.421 858.696 495.576 879.123 496.516 899.278
C 496.593 899.773 497.418 898.649 497.62 898.461
C 498.793 897.369 499.81 896.116 500.921 894.963
C 503.786 891.987 506.584 888.947 509.298 885.831
C 515.373 878.855 521.133 871.689 526.153 863.903
C 527.325 862.086 528.408 860.224 529.523 858.373
C 529.935 857.691 530.622 856.962 530.539 856.129
C 525.41 846.679 523.57 835.915 527.935 825.7
C 529.171 822.809 530.924 820.073 533.71 818.455
C 537.466 816.274 542.886 818.304 544.724 822.059
C 546.221 825.117 546.158 828.713 545.869 831.999
C 545.413 837.191 544.264 842.276 542.505 847.188
C 541.508 849.973 539.211 853.58 539.3 856.559
C 543.98 865.138 557.951 865.504 563.841 858.038
C 565.488 855.951 566.014 852.373 566.805 849.855
C 568.597 844.151 570.39 838.448 572.174 832.74
C 572.897 830.426 573.169 826.897 574.66 824.986
C 578.685 823.85 582.935 823.48 587.005 822.481
C 588.305 822.162 591.015 821.009 592.301 821.437
C 591.834 823.731 590.888 825.972 590.2 828.209
C 588.385 834.107 586.458 839.952 584.497 845.803
C 580.503 857.72 576.794 869.852 573.983 882.108
C 572.905 886.81 572.118 891.446 572.29 896.283
C 572.391 899.131 573.345 902.199 576.127 903.5
C 580.022 905.323 584.543 902.538 587.375 900.014
C 594.412 893.743 599.881 885.92 604.792 877.925
C 606.19 875.649 608.081 873.54 609.169 871.1
C 610.233 868.712 610.646 866.041 611.47 863.565
C 612.875 859.339 614.807 855.278 616.952 851.384
C 623.674 839.179 634.353 828.935 647.197 823.461
C 655.268 820.022 664.723 818.507 673.22 821.429
C 679.94 823.74 684.174 829.932 684.302 836.997
C 684.444 844.824 679.178 852.155 670.75 850.785
C 667.597 850.272 663.951 847.124 665.044 843.551
C 665.476 842.14 666.788 840.936 667.748 839.864
C 670.033 837.317 672.019 834.626 671.299 831.051
C 671.113 830.127 670.851 829.251 670.206 828.537
C 669.605 827.873 668.786 827.345 667.984 826.959
C 666.9 826.436 665.741 826.263 664.553 826.175
C 662.952 826.057 661.166 826.007 659.595 826.39
C 651.724 828.311 645.604 833.33 640.665 839.611
C 632.808 849.603 628.551 861.932 627.061 874.452
C 626.062 882.842 626.619 892.5 632.238 899.326
C 636.363 904.336 642.815 905.732 649.012 905.26
C 660.884 904.355 670.223 897.651 678.701 889.855
C 683.967 885.012 688.74 878.934 692.737 873.014
C 694.67 870.152 695.59 866.687 696.915 863.534
C 698.432 859.925 700.1 856.323 702.036 852.919
C 709.22 840.285 719.787 829.004 733.357 823.291
C 740.967 820.087 749.47 818.837 757.452 821.453
C 759.141 822.007 760.744 822.962 762.195 823.971
C 772.431 831.089 769.892 844.741 763.647 853.529
C 755.95 864.361 743.139 871.383 730.813 875.648
C 724.366 877.88 717.565 878.816 711.023 880.64
C 710.639 882.433 710.985 884.408 711.185 886.209
C 711.88 892.49 714.849 899.73 720.605 903.021
C 724.907 905.48 730.002 905.728 734.818 905.052
C 748.373 903.152 759.582 894.086 768.341 884.11
C 777.771 873.369 784.581 860.408 791.495 847.989
C 793.65 844.118 795.636 840.153 797.517 836.143
C 798.206 834.672 799.384 832.968 799.701 831.378
C 799.882 830.472 798.95 829.414 798.578 828.64
C 797.76 826.939 797.039 825.181 796.723 823.311
C 795.389 815.424 798.575 804.374 807.071 801.55
C 808.133 801.197 809.222 801.078 810.33 801
C 813.755 800.759 816.679 803.57 816.886 806.959
C 817.193 812.003 814.502 816.59 812.381 820.956
C 811.532 822.705 810.16 825.087 810.714 827.087
C 812.386 833.127 817.367 838.838 820.936 843.85
C 827.137 852.557 833.286 861.325 836.79 871.498
C 838.32 871.859 841.12 870.57 842.634 870.121
C 846.565 868.953 850.788 867.197 853.817 864.349
C 856.031 862.267 857.613 859.629 859.424 857.221
C 861.973 856.924 864.284 859.431 863.195 861.866
C 861.859 864.853 858.767 867.387 856.306 869.429
C 852.856 872.29 848.228 874.701 843.935 875.981
C 842.452 876.423 840.91 876.85 839.386 877.126
C 838.701 877.25 838.03 877.158 837.617 877.782
C 838.497 897.897 821.558 912.538 802.373 913.854
C 797.149 914.212 791.44 914.175 786.705 911.597
C 785.149 910.75 783.574 909.795 782.404 908.445
C 778.025 903.395 777.922 895.838 781.636 890.332
C 783.572 887.463 786.432 885.327 789.443 883.693
C 796.236 880.008 803.731 878.383 811.217 876.795
C 813.651 876.278 816.143 876.006 818.564 875.439
C 819.29 875.27 820.33 875.342 820.967 874.98
C 818.216 866.165 813.982 857.96 809.628 849.841
C 807.944 846.703 806.337 843.535 804.766 840.339
C 804.418 839.631 803.67 837.293 803.095 837.84
C 802.138 840.96 800.344 844.082 798.814 846.966
C 796.52 851.293 794.301 855.66 791.929 859.946
C 781.62 878.574 769.449 898.608 749.207 907.8
C 734.592 914.437 712.955 917.688 701.017 904.235
C 699.109 902.085 697.545 899.538 696.342 896.932
C 694.3 892.51 693.982 887.889 693.608 883.117
C 692.047 884.163 690.867 886.272 689.631 887.714
C 686.645 891.199 683.473 894.562 680.059 897.633
C 667.643 908.805 649.714 916.267 632.845 912.88
C 623.728 911.05 615.741 905.498 611.827 896.908
C 610.521 894.042 609.923 891.021 609.456 887.93
C 609.315 886.992 609.055 883.148 608.864 883.337
C 606.639 887.217 603.957 890.848 601.192 894.365
C 595.793 901.232 589.406 908.369 581.137 911.76
C 572.424 915.334 561.643 912.192 558.247 902.939
C 557.147 899.941 557.199 896.498 557.356 893.351
C 557.619 888.079 558.373 882.719 559.642 877.589
C 560.279 875.013 560.976 872.447 561.59 869.867
C 561.848 868.782 562.424 867.565 562.241 866.438
C 556.776 869.31 550.837 870.864 544.776 868.642
C 542.358 867.756 540.095 866.482 538.165 864.775
C 537.506 864.192 536.343 862.969 535.497 863.267
C 531.511 868.431 528.189 874.104 524.15 879.252
C 516.906 888.486 508.702 897.104 500.434 905.423
C 497.046 908.832 492.956 914.06 487.828 914.11
C 486.157 914.127 484.317 914.173 482.967 913.019
C 482.594 911.747 482.699 910.416 482.537 909.11
C 482.054 905.213 481.566 901.319 481.215 897.41
C 480.423 888.581 479.006 879.72 477.663 870.96
C 477.004 866.664 476.813 862 475.577 857.842
C 464.354 876.051 454.531 898.132 435.251 909.456
C 426.617 914.527 414.08 915.744 408.079 906.1
C 407.052 904.45 406.443 902.77 406.022 900.881
C 404.814 895.463 405.85 889.696 407.059 884.392
C 409.481 873.77 414.124 863.804 418.571 853.915
C 419.99 850.76 421.369 847.596 422.74 844.42
C 423.361 842.982 424.531 841.317 424.767 839.786
C 419.981 840.34 414.556 838.633 410.107 837.058
C 408.594 836.522 407.021 835.602 405.467 835.288
C 399.601 850.722 392.437 865.24 383.113 878.898
C 375.197 890.493 365.517 901.013 352.97 907.655
C 338.789 915.163 316.889 917.782 304.89 904.816
C 302.736 902.489 301.107 899.69 299.774 896.828
C 297.478 891.899 297.221 886.44 296.992 881.116 Z
M 314.997 874.586
C 314.862 875.371 314.931 874.973 314.788 875.777
C 315.844 876.102 317.982 874.982 319.023 874.584
C 322.57 873.227 326.142 871.815 329.489 870.011
C 343.043 862.707 358.86 850.304 357.825 833.114
C 357.489 827.537 352.919 825.82 347.991 826.653
C 341.247 827.793 335.606 833.446 331.509 838.572
C 328.072 842.873 325.038 847.468 322.605 852.417
C 319.105 859.536 316.517 866.796 314.997 874.586 Z
M 711.897 873.585
C 711.807 874.201 711.522 874.85 711.904 875.371
C 715.004 874.677 718.012 873.426 720.96 872.265
C 733.168 867.456 745.122 859.366 751.48 847.58
C 753.672 843.516 754.959 838.848 754.804 834.221
C 754.737 832.209 754.376 829.637 752.797 828.209
C 747.307 823.244 738.817 828.412 734.474 832.352
C 725.991 840.048 719.055 850.656 715.235 861.459
C 713.813 865.478 713.084 869.529 711.897 873.585 Z
M 788.467 896.612
C 788.319 897.774 788.443 898.893 788.595 900.048
C 789.928 910.165 803.071 909.542 809.901 905.882
C 816.258 902.475 820.33 895.465 821.491 888.494
C 821.928 885.874 821.647 883.274 821.729 880.649
C 814.723 881.892 807.722 882.522 800.875 884.657
C 797.648 885.663 793.778 887.22 791.518 889.835
C 789.712 891.925 789.124 894.02 788.467 896.612 Z"
opacity="1" fill="rgb(29,29,28)" fill-rule="evenodd" />
<path d="
M 581.894 792.079
C 582.825 787.877 585.956 784.287 590.191 783.258
C 597.451 781.495 604 787.163 602.478 794.715
C 601.592 799.114 598.229 802.692 593.733 803.558
C 588.799 804.509 582.419 802.171 581.718 796.584
C 581.535 795.124 581.575 793.517 581.894 792.079 Z"
opacity="1" fill="rgb(29,28,28)" fill-rule="evenodd" />
</svg>